<svg width="305" height="77" viewBox="0 0 305 77" fill="none" xmlns="http://www.w3.org/2000/svg">
<g clip-path="url(#clip0_54_22)">
<path d="M88.0909 30C87.9697 28.4848 87.4015 27.303 86.3864 26.4545C85.3864 25.6061 83.8636 25.1818 81.8182 25.1818C80.5152 25.1818 79.447 25.3409 78.6136 25.6591C77.7955 25.9621 77.1894 26.3788 76.7955 26.9091C76.4015 27.4394 76.197 28.0455 76.1818 28.7273C76.1515 29.2879 76.25 29.7955 76.4773 30.25C76.7197 30.6894 77.0985 31.0909 77.6136 31.4545C78.1288 31.803 78.7879 32.1212 79.5909 32.4091C80.3939 32.697 81.3485 32.9545 82.4545 33.1818L86.2727 34C88.8485 34.5455 91.053 35.2652 92.8864 36.1591C94.7197 37.053 96.2197 38.1061 97.3864 39.3182C98.553 40.5152 99.4091 41.8636 99.9545 43.3636C100.515 44.8636 100.803 46.5 100.818 48.2727C100.803 51.3333 100.038 53.9242 98.5227 56.0455C97.0076 58.1667 94.8409 59.7803 92.0227 60.8864C89.2197 61.9924 85.8485 62.5455 81.9091 62.5455C77.8636 62.5455 74.3333 61.947 71.3182 60.75C68.3182 59.553 65.9848 57.7121 64.3182 55.2273C62.6667 52.7273 61.8333 49.5303 61.8182 45.6364H73.8182C73.8939 47.0606 74.25 48.2576 74.8864 49.2273C75.5227 50.197 76.4167 50.9318 77.5682 51.4318C78.7348 51.9318 80.1212 52.1818 81.7273 52.1818C83.0758 52.1818 84.2045 52.0152 85.1136 51.6818C86.0227 51.3485 86.7121 50.8864 87.1818 50.2955C87.6515 49.7045 87.8939 49.0303 87.9091 48.2727C87.8939 47.5606 87.6591 46.9394 87.2045 46.4091C86.7652 45.8636 86.0379 45.3788 85.0227 44.9545C84.0076 44.5152 82.6364 44.1061 80.9091 43.7273L76.2727 42.7273C72.1515 41.8333 68.9015 40.3409 66.5227 38.25C64.1591 36.1439 62.9848 33.2727 63 29.6364C62.9848 26.6818 63.7727 24.0985 65.3636 21.8864C66.9697 19.6591 69.1894 17.9242 72.0227 16.6818C74.8712 15.4394 78.1364 14.8182 81.8182 14.8182C85.5758 14.8182 88.8258 15.447 91.5682 16.7045C94.3106 17.9621 96.4242 19.7348 97.9091 22.0227C99.4091 24.2955 100.167 26.9545 100.182 30H88.0909ZM115.903 62H102.267L117.631 15.4545H134.903L150.267 62H136.631L126.449 28.2727H126.085L115.903 62ZM113.358 43.6364H138.994V53.0909H113.358V43.6364ZM154.75 15.4545H170.477L181.295 41.8182H181.841L192.659 15.4545H208.386V62H196.023V35.0909H195.659L185.295 61.6364H177.841L167.477 34.9091H167.114V62H154.75V15.4545ZM214.375 62V15.4545H234.466C237.92 15.4545 240.943 16.1364 243.534 17.5C246.125 18.8636 248.14 20.7803 249.58 23.25C251.019 25.7197 251.739 28.6061 251.739 31.9091C251.739 35.2424 250.996 38.1288 249.511 40.5682C248.042 43.0076 245.973 44.8864 243.307 46.2045C240.655 47.5227 237.557 48.1818 234.011 48.1818H222.011V38.3636H231.466C232.951 38.3636 234.216 38.1061 235.261 37.5909C236.322 37.0606 237.133 36.3106 237.693 35.3409C238.269 34.3712 238.557 33.2273 238.557 31.9091C238.557 30.5758 238.269 29.4394 237.693 28.5C237.133 27.5455 236.322 26.8182 235.261 26.3182C234.216 25.803 232.951 25.5455 231.466 25.5455H227.011V62H214.375ZM301.466 38.7273C301.466 43.9091 300.458 48.2803 298.443 51.8409C296.428 55.3864 293.708 58.0758 290.284 59.9091C286.86 61.7273 283.042 62.6364 278.83 62.6364C274.587 62.6364 270.754 61.7197 267.33 59.8864C263.92 58.0379 261.208 55.3409 259.193 51.7955C257.193 48.2348 256.193 43.8788 256.193 38.7273C256.193 33.5455 257.193 29.1818 259.193 25.6364C261.208 22.0758 263.92 19.3864 267.33 17.5682C270.754 15.7348 274.587 14.8182 278.83 14.8182C283.042 14.8182 286.86 15.7348 290.284 17.5682C293.708 19.3864 296.428 22.0758 298.443 25.6364C300.458 29.1818 301.466 33.5455 301.466 38.7273ZM288.466 38.7273C288.466 35.9394 288.095 33.5909 287.352 31.6818C286.625 29.7576 285.542 28.303 284.102 27.3182C282.678 26.3182 280.92 25.8182 278.83 25.8182C276.739 25.8182 274.973 26.3182 273.534 27.3182C272.11 28.303 271.027 29.7576 270.284 31.6818C269.557 33.5909 269.193 35.9394 269.193 38.7273C269.193 41.5152 269.557 43.8712 270.284 45.7955C271.027 47.7045 272.11 49.1591 273.534 50.1591C274.973 51.1439 276.739 51.6364 278.83 51.6364C280.92 51.6364 282.678 51.1439 284.102 50.1591C285.542 49.1591 286.625 47.7045 287.352 45.7955C288.095 43.8712 288.466 41.5152 288.466 38.7273Z" fill="white"/>
<g clip-path="url(#clip1_54_22)">
<path fill-rule="evenodd" clip-rule="evenodd" d="M25 63.9183C13.2535 63.9183 7.38024 63.9183 3.7297 60.2678C0.081665 56.6222 0.081665 50.7465 0.081665 39C0.081665 27.2535 0.081665 21.3803 3.7297 17.7297C7.38273 14.0817 13.2535 14.0817 25 14.0817C36.7465 14.0817 42.6197 14.0817 46.2677 17.7297C49.9183 21.3828 49.9183 27.2535 49.9183 39C49.9183 50.7465 49.9183 56.6197 46.2677 60.2678C42.6222 63.9183 36.7465 63.9183 25 63.9183ZM29.874 44.2204C29.3931 44.644 28.7776 44.8882 27.5516 45.3791C21.7955 47.6815 18.9174 48.8328 17.2753 47.7164C16.8851 47.4514 16.5486 47.1149 16.2835 46.7247C15.1672 45.0801 16.3184 42.2045 18.6209 36.4484C19.1118 35.2199 19.356 34.6044 19.7796 34.126C19.8876 34.0014 20.003 33.8851 20.1259 33.7771C20.6069 33.356 21.2224 33.1118 22.4483 32.6209C28.2045 30.3185 31.0825 29.1672 32.7246 30.2836C33.1148 30.5486 33.4513 30.8851 33.7164 31.2753C34.8327 32.9199 33.6815 35.7955 31.3791 41.5516C30.8882 42.7801 30.644 43.3956 30.2204 43.874C30.1124 43.9986 29.9969 44.1124 29.874 44.2204Z" fill="url(#paint0_linear_54_22)"/>
</g>
</g>
<defs>
<linearGradient id="paint0_linear_54_22" x1="-3.54592e-07" y1="14" x2="50" y2="64" gradientUnits="userSpaceOnUse">
<stop stop-color="#FDE047"/>
<stop offset="0.5" stop-color="#F97316"/>
<stop offset="1" stop-color="#F43F5E"/>
</linearGradient>
<clipPath id="clip0_54_22">
<rect width="305" height="77" fill="white" transform="matrix(-1 0 0 1 305 0)"/>
</clipPath>
<clipPath id="clip1_54_22">
<rect width="50" height="50" fill="white" transform="translate(0 14)"/>
</clipPath>
</defs>
</svg>
